<?xml version="1.0" encoding="utf-8"?>
<!-- BEGIN-STYLESHEET -->
<?xml-stylesheet type="text/css" href="../css/style.css" ?>
<!-- END-STYLESHEET -->
<!-- Generator: Adobe Illustrator 17.1.0, SVG Export Plug-In . SVG Version: 6.00 Build 0)  -->
<!DOCTYPE svg PUBLIC "-//W3C//DTD SVG 1.1//EN" "http://www.w3.org/Graphics/SVG/1.1/DTD/svg11.dtd">
<svg version="1.1" id="Layer_1" xmlns="http://www.w3.org/2000/svg" xmlns:xlink="http://www.w3.org/1999/xlink" x="0px" y="0px"
	 viewBox="0 0 50 50" enable-background="new 0 0 50 50" xml:space="preserve">
<g>
	<g>
		<path d="M39.3,18H12.7c-0.9,0-1.7-0.9-1.7-2s0.7-2,1.7-2h26.7c0.9,0,1.7,0.9,1.7,2S40.3,18,39.3,18z"/>
	</g>
	<g>
		<path d="M39.3,27H12.7c-0.9,0-1.7-0.9-1.7-2s0.7-2,1.7-2h26.7c0.9,0,1.7,0.9,1.7,2S40.3,27,39.3,27z"/>
	</g>
	<g>
		<path d="M39.3,36H12.7c-0.9,0-1.7-0.9-1.7-2s0.7-2,1.7-2h26.7c0.9,0,1.7,0.9,1.7,2S40.3,36,39.3,36z"/>
	</g>
</g>
</svg>
