<?xml version="1.0" encoding="utf-8"?>
<!-- BEGIN-STYLESHEET -->
<?xml-stylesheet type="text/css" href="../../css/style.css" ?>
<!-- END-STYLESHEET -->
<!-- Generator: Adobe Illustrator 17.1.0, SVG Export Plug-In . SVG Version: 6.00 Build 0)  -->
<!DOCTYPE svg PUBLIC "-//W3C//DTD SVG 1.1//EN" "http://www.w3.org/Graphics/SVG/1.1/DTD/svg11.dtd">
<svg version="1.1" id="Layer_1" xmlns="http://www.w3.org/2000/svg" xmlns:xlink="http://www.w3.org/1999/xlink" x="0px" y="0px"
	 viewBox="0 0 50 50" enable-background="new 0 0 50 50" xml:space="preserve">
<g>
	<path fill="#81818C" d="M16,41.6h-2l1.2-1.6c0.8-1.1,1.3-2.5,1.6-4.2c-5-2.3-7.8-6.6-7.8-12.2c0-8.6,6.5-14,17-14s17,5.4,17,14
		c0,8.8-6.4,14-17,14c-0.2,0-0.4,0-0.7,0C23.7,39.5,20.9,41.6,16,41.6z M26,11.6c-9.4,0-15,4.5-15,12c0,6.4,3.9,9.4,7.2,10.7
		l0.7,0.3l-0.1,0.8c-0.2,1.6-0.5,3-1.1,4.2c3.3-0.4,5.2-2.1,6.3-3.5l0.3-0.4l0.7,0c0.3,0,0.6,0,1,0c13.5,0,15-8.4,15-12
		C41,16.1,35.4,11.6,26,11.6z"/>
</g>
</svg>
