<?xml version="1.0" encoding="utf-8"?>
<!-- BEGIN-STYLESHEET -->
<?xml-stylesheet type="text/css" href="../../css/style.css" ?>
<!-- END-STYLESHEET -->
<!-- Generator: Adobe Illustrator 17.1.0, SVG Export Plug-In . SVG Version: 6.00 Build 0)  -->
<!DOCTYPE svg PUBLIC "-//W3C//DTD SVG 1.1//EN" "http://www.w3.org/Graphics/SVG/1.1/DTD/svg11.dtd">
<svg version="1.1" id="Layer_1" xmlns="http://www.w3.org/2000/svg" xmlns:xlink="http://www.w3.org/1999/xlink" x="0px" y="0px"
	 viewBox="0 0 50 50" enable-background="new 0 0 50 50" xml:space="preserve">
<g>
	<path fill="#81818C" d="M39,35h-2V17c0-0.6-0.4-1-1-1H19v-2h17c1.7,0,3,1.3,3,3V35z"/>
	<polygon fill="#81818C" points="38,36.5 31.3,28.6 32.7,27.4 38,33.6 43.3,27.4 44.7,28.6 	"/>
	<path fill="#81818C" d="M33,36H16c-1.7,0-3-1.3-3-3V15h2v18c0,0.6,0.4,1,1,1h17V36z"/>
	<polygon fill="#81818C" points="19.3,22.6 14,16.5 8.7,22.6 7.3,21.4 14,13.6 20.7,21.4 	"/>
</g>
</svg>
