<?xml version="1.0" encoding="utf-8"?>
<!-- BEGIN-STYLESHEET -->
<?xml-stylesheet type="text/css" href="../css/style.css" ?>
<!-- END-STYLESHEET -->
<!-- Generator: Adobe Illustrator 17.1.0, SVG Export Plug-In . SVG Version: 6.00 Build 0)  -->
<!DOCTYPE svg PUBLIC "-//W3C//DTD SVG 1.1//EN" "http://www.w3.org/Graphics/SVG/1.1/DTD/svg11.dtd">
<svg version="1.1" id="Layer_1" xmlns="http://www.w3.org/2000/svg" xmlns:xlink="http://www.w3.org/1999/xlink" x="0px" y="0px"
	 viewBox="0 0 50 50" enable-background="new 0 0 50 50" xml:space="preserve">
<g>
	<path class="icon-pencil" d="M11.7,39.3l2.4-9.8L29,14.7l7.3,7.3L21.5,36.8L11.7,39.3z M15.8,30.5l-1.6,6.2l6.2-1.6L33.7,22L29,17.3
		L15.8,30.5z"/>
	<path class="icon-pencil" d="M19.9,36.3c-0.6-2.5-2.6-4.5-5.1-5.1l0.5-1.8c3.2,0.8,5.7,3.3,6.5,6.5L19.9,36.3z"/>

		<rect class="icon-pencil" x="24.6" y="16.3" transform="matrix(0.7071 0.7071 -0.7071 0.7071 25.4865 -10.568)" width="1.9" height="18.4"/>
	<path class="icon-pencil" d="M13,38l2.9-0.7c-0.3-1.1-1.1-1.9-2.2-2.2L13,38z"/>
	<path class="icon-pencil" d="M37,21.3L29.7,14l2.9-2.9l0.5,0.1c3.5,0.5,6.3,3.3,6.8,6.8l0.1,0.5L37,21.3z M32.3,14l4.7,4.7l0.9-0.9
		c-0.5-2.3-2.3-4.2-4.7-4.7L32.3,14z"/>
</g>
</svg>
