<?xml version="1.0" encoding="utf-8"?>
<!-- BEGIN-STYLESHEET -->
<?xml-stylesheet type="text/css" href="../../css/style.css" ?>
<!-- END-STYLESHEET -->
<!-- Generator: Adobe Illustrator 17.1.0, SVG Export Plug-In . SVG Version: 6.00 Build 0)  -->
<!DOCTYPE svg PUBLIC "-//W3C//DTD SVG 1.1//EN" "http://www.w3.org/Graphics/SVG/1.1/DTD/svg11.dtd">
<svg version="1.1" id="Layer_1" xmlns="http://www.w3.org/2000/svg" xmlns:xlink="http://www.w3.org/1999/xlink" x="0px" y="0px"
	 viewBox="0 0 50 50" enable-background="new 0 0 50 50" xml:space="preserve">
<g>
	<path fill="#81818C" d="M26,42.6c-9.3,0-16.9-7.6-16.9-16.9S16.7,8.7,26,8.7s16.9,7.6,16.9,16.9S35.3,42.6,26,42.6z M26,10.6
		c-8.3,0-15.1,6.8-15.1,15.1S17.7,40.7,26,40.7S41.1,34,41.1,25.7S34.3,10.6,26,10.6z"/>

		<rect x="25.1" y="14.4" transform="matrix(0.7068 0.7074 -0.7074 0.7068 25.7815 -10.8658)" fill="#81818C" width="1.9" height="22.6"/>

		<rect x="14.7" y="24.7" transform="matrix(0.7071 0.7071 -0.7071 0.7071 25.768 -10.8657)" fill="#81818C" width="22.6" height="1.9"/>
</g>
</svg>
