<?xml version="1.0" encoding="utf-8"?>
<!-- BEGIN-STYLESHEET -->
<?xml-stylesheet type="text/css" href="../../css/style.css" ?>
<!-- END-STYLESHEET -->
<?xml-stylesheet type="text/css" href="css/icons.css"?>
<!-- Generator: Adobe Illustrator 17.1.0, SVG Export Plug-In . SVG Version: 6.00 Build 0)  -->
<!DOCTYPE svg PUBLIC "-//W3C//DTD SVG 1.1//EN" "http://www.w3.org/Graphics/SVG/1.1/DTD/svg11.dtd">
<svg version="1.1" id="Layer_1" xmlns="http://www.w3.org/2000/svg" xmlns:xlink="http://www.w3.org/1999/xlink" x="0px" y="0px"
	 viewBox="0 0 50 50" enable-background="new 0 0 50 50" xml:space="preserve">
<g>
	<path fill="#81818C" d="M28.7,10.4l-4.7-0.1c0,0,0,0,0,0l0,7.8l4.7,0.1L28.7,10.4z"/>
	<path fill="#81818C" d="M42.7,15.4L36,8.7c-0.4-0.4-0.9-0.7-1.6-1c-0.7-0.3-1.3-0.4-1.8-0.4H10.2c-0.5,0-0.8,0.1-1.1,0.5
		S8.6,8.4,8.6,8.9v32.3c0,0.5,0.1,0.8,0.5,1.1s0.7,0.5,1.1,0.5h32.3c0.5,0,0.8-0.1,1.1-0.5s0.5-0.7,0.5-1.1V18.9
		c0-0.5-0.1-1.2-0.4-1.8C43.4,16.3,43.1,15.8,42.7,15.4z M22.6,10.4c0-0.4,0.2-0.8,0.4-1.1c0.3-0.3,0.7-0.4,1-0.4h4.6
		c0.4,0,0.8,0.2,1,0.4c0.3,0.3,0.4,0.7,0.4,1.1v7.7c0,0.4-0.2,0.8-0.4,1.1c-0.3,0.3-0.6,0.4-1,0.4h-4.6c-0.4,0-0.8-0.2-1.1-0.4
		c-0.3-0.3-0.4-0.6-0.4-1V10.4z M36.3,41.1H16.4V30.5h19.9V41.1z M42.5,41.1H38V30.4c0-0.5-0.1-0.8-0.5-1.1
		c-0.3-0.3-0.7-0.5-1.1-0.5h-20c-0.5,0-0.8,0.1-1.1,0.5s-0.5,0.7-0.5,1.1v10.7h-4.5V8.9h4.5v10.7c0,0.5,0.1,0.8,0.5,1.1
		s0.7,0.5,1.1,0.5h13.9c0.5,0,0.8-0.1,1.1-0.5c0.3-0.3,0.5-0.7,0.5-1.1V8.9h0.7c0.3,0,0.7,0.1,1.2,0.3c0.5,0.2,0.8,0.4,1,0.6
		l6.8,6.8c0.2,0.2,0.4,0.6,0.6,1.1c0.2,0.5,0.3,0.9,0.3,1.2V41.1z"/>
</g>
</svg>
