<?xml version="1.0" encoding="utf-8"?>
<!-- BEGIN-STYLESHEET -->
<?xml-stylesheet type="text/css" href="../../css/style.css" ?>
<!-- END-STYLESHEET -->
<!-- Generator: Adobe Illustrator 17.1.0, SVG Export Plug-In . SVG Version: 6.00 Build 0)  -->
<!DOCTYPE svg PUBLIC "-//W3C//DTD SVG 1.1//EN" "http://www.w3.org/Graphics/SVG/1.1/DTD/svg11.dtd">
<svg version="1.1" id="Layer_1" xmlns="http://www.w3.org/2000/svg" xmlns:xlink="http://www.w3.org/1999/xlink" x="0px" y="0px"
	 viewBox="0 0 50 50" enable-background="new 0 0 50 50" xml:space="preserve">
<g>
	<g>
		<path fill="#81818C" d="M26,42c-9.4,0-17-7.6-17-17S16.6,8,26,8s17,7.6,17,17S35.4,42,26,42z M26,10c-8.3,0-15,6.7-15,15
			s6.7,15,15,15s15-6.7,15-15S34.3,10,26,10z"/>
	</g>
	<g>
		<g>
			<path fill="#81818C" d="M20.8,19.6c0.3-0.8,0.6-1.4,1.2-1.9c0.5-0.5,1.1-0.9,1.9-1.2s1.6-0.4,2.5-0.4c0.7,0,1.4,0.1,2,0.3
				c0.6,0.2,1.2,0.5,1.7,0.9s0.9,0.9,1.1,1.5c0.3,0.6,0.4,1.3,0.4,2c0,1-0.2,1.8-0.6,2.5s-1,1.3-1.6,2c-0.5,0.5-1,1-1.3,1.3
				c-0.3,0.3-0.6,0.6-0.7,0.9c-0.2,0.3-0.3,0.7-0.3,1.1c-0.1,0.4-0.1,0.7-0.1,1.5h-1.6c0-0.8,0-1.1,0.1-1.7c0.1-0.5,0.3-1,0.5-1.5
				c0.2-0.4,0.5-0.8,0.9-1.2c0.4-0.4,0.9-0.8,1.4-1.4c0.5-0.5,0.9-1,1.2-1.5s0.5-1.2,0.5-1.8c0-0.5-0.1-1-0.3-1.4
				c-0.2-0.4-0.5-0.8-0.8-1.1c-0.3-0.3-0.7-0.5-1.2-0.7c-0.5-0.2-0.9-0.3-1.4-0.3c-0.7,0-1.3,0.1-1.8,0.4c-0.5,0.2-1,0.6-1.3,1
				c-0.3,0.4-0.6,0.9-0.8,1.5s-0.3,1-0.2,1.7h-1.6C20.4,21.1,20.6,20.4,20.8,19.6z M27,32v2h-2v-2H27z"/>
		</g>
	</g>
</g>
</svg>
