<?xml version="1.0" encoding="utf-8"?>
<!-- BEGIN-STYLESHEET -->
<?xml-stylesheet type="text/css" href="style.css" ?>
<!-- END-STYLESHEET -->
<!-- Generator: Adobe Illustrator 17.1.0, SVG Export Plug-In . SVG Version: 6.00 Build 0)  -->
<!DOCTYPE svg PUBLIC "-//W3C//DTD SVG 1.1//EN" "http://www.w3.org/Graphics/SVG/1.1/DTD/svg11.dtd">
<svg version="1.1" id="Layer_1" xmlns="http://www.w3.org/2000/svg" xmlns:xlink="http://www.w3.org/1999/xlink" x="0px" y="0px"
	 viewBox="0 0 50 50" enable-background="new 0 0 50 50" xml:space="preserve">
<g>
	<path fill="#81818C" d="M43,19.2h-2v-5c0-0.6-0.4-1-1-1H12c-0.6,0-1,0.4-1,1v5H9v-5c0-1.7,1.3-3,3-3h28c1.7,0,3,1.3,3,3V19.2z"/>
	<path fill="#81818C" d="M38,39.2H14c-1.7,0-3-1.3-3-3v-17h2v17c0,0.6,0.4,1,1,1h24c0.6,0,1-0.4,1-1v-17h2v17
		C41,37.8,39.7,39.2,38,39.2z"/>
	<path fill="#81818C" d="M30,25h-8c-0.6,0-1-0.4-1-1s0.4-1,1-1h8c0.6,0,1,0.4,1,1S30.6,25,30,25z"/>
	<rect x="9" y="17" fill="#81818C" width="34" height="2"/>
</g>
</svg>
