<?xml version="1.0" encoding="utf-8"?>
<!-- BEGIN-STYLESHEET -->
<?xml-stylesheet type="text/css" href="../../css/style.css" ?>
<!-- END-STYLESHEET -->
<?xml-stylesheet type="text/css" href="css/icons.css"?>
<!-- Generator: Adobe Illustrator 17.1.0, SVG Export Plug-In . SVG Version: 6.00 Build 0)  -->
<!DOCTYPE svg PUBLIC "-//W3C//DTD SVG 1.1//EN" "http://www.w3.org/Graphics/SVG/1.1/DTD/svg11.dtd">
<svg version="1.1" id="Layer_1" xmlns="http://www.w3.org/2000/svg" xmlns:xlink="http://www.w3.org/1999/xlink" x="0px" y="0px"
	 viewBox="0 0 50 50" enable-background="new 0 0 50 50" xml:space="preserve">
<g>
	<g>
		<path fill="#81818C" d="M32.1,45.2h-28c-1.7,0-3-1.3-3-3v-20c0-1.7,1.3-3,3-3h28c1.7,0,3,1.3,3,3v20
			C35.1,43.8,33.8,45.2,32.1,45.2z M4.1,21.2c-0.6,0-1,0.4-1,1v20c0,0.6,0.4,1,1,1h28c0.6,0,1-0.4,1-1v-20c0-0.6-0.4-1-1-1H4.1z"/>
		<path fill="#81818C" d="M23.1,31.1c-2.2,0-3.9-1.8-3.9-3.9s1.8-3.9,3.9-3.9s3.9,1.8,3.9,3.9S25.3,31.1,23.1,31.1z M23.1,25.1
			c-1.1,0-2.1,0.9-2.1,2.1s0.9,2.1,2.1,2.1s2.1-0.9,2.1-2.1S24.3,25.1,23.1,25.1z"/>
		<polygon fill="#81818C" points="28.5,44.9 12.1,29.5 2.8,38.2 1.5,36.8 12.1,26.9 29.8,43.5 		"/>
		<polygon fill="#81818C" points="33.6,39.8 28.1,35.4 23.6,39.1 22.4,37.7 28.1,33 34.7,38.3 		"/>
	</g>
	<g>
		<rect x="39.5" y="4.8" fill="#81818C" width="1.9" height="16.8"/>
		<rect x="32.1" y="12.3" fill="#81818C" width="16.8" height="1.9"/>
	</g>
</g>
</svg>
