<?xml version="1.0" encoding="utf-8"?>
<!-- BEGIN-STYLESHEET -->
<?xml-stylesheet type="text/css" href="../../css/style.css" ?>
<!-- END-STYLESHEET -->
<!-- Generator: Adobe Illustrator 17.1.0, SVG Export Plug-In . SVG Version: 6.00 Build 0)  -->
<!DOCTYPE svg PUBLIC "-//W3C//DTD SVG 1.1//EN" "http://www.w3.org/Graphics/SVG/1.1/DTD/svg11.dtd">
<svg version="1.1" id="Layer_1" xmlns="http://www.w3.org/2000/svg" xmlns:xlink="http://www.w3.org/1999/xlink" x="0px" y="0px"
	 viewBox="0 0 50 50" enable-background="new 0 0 50 50" xml:space="preserve">
<g>
	<path fill="#81818C" d="M15.5,13c-1.1,0-2.5,0.4-2.5,1.5v21c0,1.1,1.4,2.5,2.5,2.5H38V13H15.5z M34.3,20.5C34.1,20.8,34,21,33.9,21
		c-0.4,0.5-1.6,1-3.5,1.4c-0.3,0.1-0.6,0.3-1,0.5c-3.3,4.1-0.2,0.1-8.4,10.3c-0.3,0.3-0.9,1-1.9,0.1c-1.1-0.9-0.5-1.7-0.2-2.2
		c1.4-2.1,7.1-9.1,7-9.2c0.3-0.2,0.5-0.4,0.6-0.6c0.4-0.5,0.6-1.2,0.5-2c0-1.2,0.1-2.1,0.5-2.5l0.3-0.4c0.7-0.8,1.6-1.4,2.7-1.7
		c0.1,0.1-0.1,0.8-0.8,2.2c-0.1,0.6,0,1,0.3,1.3l0.1,0.1c1.4,0.7,2.3,0.8,2.7,0.3c0.6-1.3,1.1-2,1.3-2.3l0.4,0.1
		C34.7,18.6,34.7,20,34.3,20.5z"/>
	<path fill="#EDEDF2" d="M33.9,16.4c-0.2,0.2-0.6,1-1.3,2.3c-0.4,0.5-1.3,0.4-2.7-0.3l-0.1-0.1c-0.3-0.3-0.5-0.7-0.3-1.3
		c0.7-1.3,0.9-2,0.8-2.2c-1.1,0.3-2,0.9-2.7,1.7l-0.3,0.4c-0.4,0.4-0.5,1.3-0.5,2.5c0.1,0.8,0,1.5-0.5,2c-0.1,0.2-0.3,0.4-0.6,0.6
		c0.1,0.1-5.6,7-7,9.2c-0.3,0.5-0.9,1.3,0.2,2.2c1,0.8,1.6,0.2,1.9-0.1c8.2-10.1,5.1-6.2,8.4-10.3c0.4-0.3,0.8-0.5,1-0.5
		c1.9-0.4,3.1-0.9,3.5-1.4c0,0,0.1-0.2,0.3-0.5c0.4-0.5,0.5-1.9,0.1-4.1L33.9,16.4z"/>
</g>
</svg>
