<?xml version="1.0" encoding="utf-8"?>
<!-- Generator: Adobe Illustrator 17.1.0, SVG Export Plug-In . SVG Version: 6.00 Build 0)  -->
<!DOCTYPE svg PUBLIC "-//W3C//DTD SVG 1.1//EN" "http://www.w3.org/Graphics/SVG/1.1/DTD/svg11.dtd">
<svg version="1.1" id="Layer_1" xmlns="http://www.w3.org/2000/svg" xmlns:xlink="http://www.w3.org/1999/xlink" x="0px" y="0px"
	 viewBox="0 0 500 301" enable-background="new 0 0 500 301" xml:space="preserve">
<g>
	<rect fill="#009A68" width="500" height="301.6"/>
	<polygon fill="#FFE62B" points="249.8,37.2 43.6,151.2 249.8,263.1 250.2,263.1 456.5,151.2 250.2,37.2 	"/>
	<ellipse fill="#005EAD" cx="249.7" cy="150.8" rx="74.8" ry="74.8"/>
	<path fill="#FFFFFF" d="M324.1,163.5l-3.1,12c0,0-50.2-53.6-144.6-42.5l4.3-12.5C180.7,120.6,264.2,106.8,324.1,163.5z"/>
	<polygon fill="#F8FAFB" points="273.8,124.5 274.5,126.8 276.9,126.8 274.9,128.3 275.7,130.6 273.8,129.1 271.8,130.6 
		272.6,128.3 270.7,126.8 273,126.8 	"/>
	<polygon fill="#F8FAFB" points="303.3,174.5 304.1,176.8 306.4,176.8 304.5,178.2 305.2,180.6 303.3,179.1 301.4,180.6 
		302.1,178.2 300.2,176.8 302.6,176.8 	"/>
	<polygon fill="#F8FAFB" points="251.6,181.5 252.3,183.8 254.7,183.8 252.7,185.2 253.5,187.5 251.6,186.1 249.6,187.5 
		250.4,185.2 248.5,183.8 250.8,183.8 	"/>
	<polygon fill="#F8FAFB" points="290.5,196.4 291.1,198.3 293.1,198.3 291.5,199.6 292.1,201.5 290.5,200.3 288.9,201.5 
		289.5,199.6 287.9,198.3 289.9,198.3 	"/>
	<polygon fill="#F8FAFB" points="301.2,186.1 301.8,188.1 303.8,188.1 302.2,189.3 302.8,191.2 301.2,190 299.6,191.2 300.2,189.3 
		298.6,188.1 300.6,188.1 	"/>
	<polygon fill="#F8FAFB" points="304.6,181.9 305.2,183.8 307.2,183.8 305.6,185 306.2,187 304.6,185.7 302.9,187 303.6,185 
		301.9,183.8 303.9,183.8 	"/>
	<polygon fill="#F8FAFB" points="269.7,146 270.2,147.6 271.9,147.6 270.5,148.6 271.1,150.2 269.7,149.2 268.4,150.2 268.9,148.6 
		267.5,147.6 269.2,147.6 	"/>
	<polygon fill="#F8FAFB" points="250.5,159.3 251.1,161.2 253,161.2 251.5,162.4 252.1,164.3 250.5,163.1 248.9,164.3 249.5,162.4 
		248,161.2 249.9,161.2 	"/>
	<polygon fill="#F8FAFB" points="223.5,151 224.1,152.8 226,152.8 224.5,154 225.1,155.9 223.5,154.7 222,155.9 222.6,154 
		221,152.8 222.9,152.8 	"/>
	<polygon fill="#F8FAFB" points="196,164.9 196.7,167.3 199.1,167.3 197.2,168.8 197.9,171.2 196,169.7 194,171.2 194.7,168.8 
		192.8,167.3 195.2,167.3 	"/>
	<polygon fill="#F8FAFB" points="188.8,133.7 189.6,136.1 192,136.1 190,137.6 190.8,140 188.8,138.5 186.9,140 187.6,137.6 
		185.7,136.1 188.1,136.1 	"/>
	<polygon fill="#F8FAFB" points="222.1,187.9 222.8,190.2 225.2,190.2 223.3,191.7 224,194 222.1,192.6 220.2,194 220.9,191.7 
		219,190.2 221.4,190.2 	"/>
	<polygon fill="#F8FAFB" points="259.4,167.2 260,169.1 262,169.1 260.4,170.3 261,172.2 259.4,171 257.9,172.2 258.5,170.3 
		256.9,169.1 258.8,169.1 	"/>
	<polygon fill="#F8FAFB" points="274.8,200.3 275.3,201.9 277,201.9 275.6,202.9 276.1,204.5 274.8,203.5 273.4,204.5 273.9,202.9 
		272.6,201.9 274.3,201.9 	"/>
	<polygon fill="#F8FAFB" points="279.3,190 279.8,191.6 281.5,191.6 280.2,192.6 280.7,194.2 279.3,193.2 278,194.2 278.5,192.6 
		277.1,191.6 278.8,191.6 	"/>
	<polygon fill="#F8FAFB" points="243.8,166.9 244.3,168.6 246,168.6 244.6,169.6 245.2,171.2 243.8,170.2 242.5,171.2 243,169.6 
		241.6,168.6 243.3,168.6 	"/>
	<polygon fill="#F8FAFB" points="203.1,161.4 203.6,162.8 204.9,162.8 203.8,163.6 204.2,165 203.1,164.2 202,165 202.4,163.6 
		201.3,162.8 202.7,162.8 	"/>
	<polygon fill="#F8FAFB" points="290.5,190 291,191.6 292.7,191.6 291.3,192.6 291.8,194.2 290.5,193.2 289.1,194.2 289.7,192.6 
		288.3,191.6 290,191.6 	"/>
	<polygon fill="#F8FAFB" points="290.5,202.7 291,204.1 292.4,204.1 291.2,205 291.7,206.4 290.5,205.5 289.3,206.4 289.8,205 
		288.6,204.1 290.1,204.1 	"/>
	<polygon fill="#F8FAFB" points="211.1,172 211.7,173.9 213.5,173.9 212,175.1 212.6,176.9 211.1,175.8 209.6,176.9 210.1,175.1 
		208.6,173.9 210.5,173.9 	"/>
	<polygon fill="#F8FAFB" points="186.5,172 187.1,173.9 188.9,173.9 187.4,175.1 188,176.9 186.5,175.8 185,176.9 185.6,175.1 
		184,173.9 185.9,173.9 	"/>
	<polygon fill="#F8FAFB" points="249.1,173 249.6,174.4 251,174.4 249.8,175.2 250.3,176.6 249.1,175.8 247.9,176.6 248.4,175.2 
		247.2,174.4 248.7,174.4 	"/>
	<polygon fill="#F8FAFB" points="209.1,181.9 209.5,183.3 211,183.3 209.8,184.2 210.3,185.6 209.1,184.7 207.9,185.6 208.4,184.2 
		207.2,183.3 208.6,183.3 	"/>
	<polygon fill="#F8FAFB" points="313.3,175.9 313.7,177.4 315.2,177.4 314,178.2 314.5,179.6 313.3,178.8 312.1,179.6 312.6,178.2 
		311.4,177.4 312.8,177.4 	"/>
	<polygon fill="#F8FAFB" points="296.1,190 296.6,191.6 298.3,191.6 296.9,192.6 297.4,194.2 296.1,193.2 294.7,194.2 295.2,192.6 
		293.9,191.6 295.6,191.6 	"/>
	<polygon fill="#F8FAFB" points="268.4,189.5 269,191.1 270.6,191.1 269.3,192.2 269.8,193.8 268.4,192.8 267.1,193.8 267.6,192.2 
		266.3,191.1 267.9,191.1 	"/>
	<polygon fill="#F8FAFB" points="251.2,205.8 251.4,206.6 252.2,206.6 251.6,207 251.8,207.8 251.2,207.3 250.5,207.8 250.8,207 
		250.1,206.6 250.9,206.6 	"/>
	<path d="M188.6,125.4c0,0.8,0.2,1.3,0.6,1.7c0.4,0.4,0.8,0.6,1.4,0.6c0.6,0,1-0.2,1.4-0.6c0.4-0.4,0.6-1,0.6-1.7
		c0-0.8-0.2-1.3-0.5-1.7c-0.4-0.4-0.8-0.6-1.4-0.6c-0.6,0-1.1,0.2-1.4,0.6C188.7,124,188.6,124.6,188.6,125.4z M187.1,125.4
		c0-0.7,0.1-1.2,0.3-1.7c0.2-0.3,0.4-0.6,0.7-0.9c0.3-0.3,0.6-0.5,0.9-0.6c0.4-0.2,0.9-0.3,1.5-0.3c1,0,1.9,0.3,2.5,0.9
		c0.6,0.6,0.9,1.5,0.9,2.5c0,1.1-0.3,1.9-0.9,2.5c-0.6,0.6-1.5,0.9-2.5,0.9c-1.1,0-1.9-0.3-2.5-0.9
		C187.4,127.3,187.1,126.5,187.1,125.4z"/>
	<path d="M265,137c0,0.8,0.2,1.3,0.6,1.7c0.4,0.4,0.8,0.6,1.4,0.6c0.6,0,1-0.2,1.4-0.6c0.4-0.4,0.5-1,0.5-1.7c0-0.8-0.2-1.3-0.5-1.7
		c-0.4-0.4-0.8-0.6-1.4-0.6c-0.6,0-1.1,0.2-1.4,0.6C265.2,135.7,265,136.2,265,137z M263.6,137.1c0-0.7,0.1-1.2,0.3-1.7
		c0.2-0.3,0.4-0.6,0.7-0.9c0.3-0.3,0.6-0.5,0.9-0.6c0.4-0.2,0.9-0.3,1.5-0.3c1,0,1.9,0.3,2.5,0.9c0.6,0.6,0.9,1.5,0.9,2.5
		c0,1.1-0.3,1.9-0.9,2.5c-0.6,0.6-1.5,0.9-2.5,0.9c-1.1,0-1.9-0.3-2.5-0.9C263.9,139,263.6,138.1,263.6,137.1z"/>
	<path d="M198.4,124.6h1.2c0.8,0,1.3,0,1.5-0.1c0.2-0.1,0.4-0.2,0.5-0.3c0.1-0.1,0.2-0.3,0.2-0.5c0-0.2-0.1-0.4-0.2-0.6
		c-0.2-0.1-0.4-0.2-0.6-0.3c-0.1,0-0.5,0-1.2,0h-1.3V124.6z M196.7,128.6v-7h3.5c0.9,0,1.5,0.1,1.9,0.2c0.4,0.1,0.7,0.3,1,0.7
		c0.2,0.3,0.4,0.7,0.4,1.1c0,0.5-0.2,1-0.5,1.3c-0.4,0.3-0.9,0.6-1.6,0.6c0.4,0.2,0.7,0.4,0.9,0.6c0.2,0.2,0.6,0.6,1,1.1l1,1.4h-2
		l-1.2-1.5c-0.4-0.5-0.7-0.9-0.9-1c-0.2-0.1-0.3-0.2-0.5-0.3c-0.2-0.1-0.5-0.1-0.8-0.1h-0.3v2.9H196.7z"/>
	<path d="M257.3,132.9l1.2,0.4c0.8,0.3,1.3,0.4,1.5,0.4c0.2,0,0.4,0,0.5-0.1c0.2-0.1,0.3-0.2,0.3-0.4c0.1-0.2,0.1-0.4,0-0.6
		c-0.1-0.2-0.3-0.3-0.5-0.5c-0.1-0.1-0.5-0.2-1.2-0.4l-1.2-0.4L257.3,132.9z M254.4,136.2l2.2-6.6l3.4,1.1c0.8,0.3,1.4,0.5,1.8,0.8
		c0.3,0.2,0.6,0.6,0.7,0.9c0.1,0.4,0.1,0.8,0,1.2c-0.2,0.5-0.5,0.8-0.9,1.1c-0.5,0.2-1,0.2-1.8,0.1c0.3,0.3,0.5,0.6,0.7,0.8
		c0.2,0.3,0.3,0.7,0.5,1.4l0.5,1.6l-1.9-0.6l-0.7-1.8c-0.2-0.7-0.4-1.1-0.5-1.3c-0.1-0.2-0.2-0.3-0.4-0.4c-0.1-0.1-0.4-0.2-0.8-0.3
		l-0.3-0.1l-0.9,2.8L254.4,136.2z"/>
	<path d="M283.2,143.3l1.1,0.6c0.7,0.4,1.2,0.6,1.4,0.6c0.2,0,0.4,0,0.6,0c0.2-0.1,0.3-0.2,0.4-0.4c0.1-0.2,0.1-0.4,0.1-0.6
		c-0.1-0.2-0.2-0.4-0.4-0.5c-0.1-0.1-0.5-0.3-1.1-0.6l-1.2-0.6L283.2,143.3z M279.9,146l3.3-6.2l3.1,1.7c0.8,0.4,1.3,0.8,1.6,1.1
		c0.3,0.3,0.5,0.6,0.5,1c0.1,0.4,0,0.8-0.2,1.1c-0.2,0.5-0.6,0.8-1.1,0.9c-0.5,0.1-1.1,0.1-1.7-0.2c0.2,0.3,0.4,0.6,0.5,0.9
		c0.1,0.3,0.2,0.8,0.3,1.4l0.3,1.7l-1.8-0.9l-0.4-1.9c-0.1-0.7-0.2-1.1-0.3-1.3c-0.1-0.2-0.2-0.4-0.3-0.5c-0.1-0.1-0.4-0.3-0.7-0.5
		l-0.3-0.2l-1.4,2.6L279.9,146z"/>
	<path d="M207.7,122.9v4.6h1.2c0.4,0,0.8,0,1-0.1c0.3-0.1,0.5-0.2,0.6-0.3c0.2-0.1,0.3-0.4,0.4-0.7c0.1-0.3,0.2-0.7,0.2-1.3
		c0-0.5-0.1-1-0.2-1.2c-0.1-0.3-0.3-0.5-0.5-0.7c-0.2-0.2-0.4-0.3-0.7-0.3c-0.2,0-0.7-0.1-1.3-0.1H207.7z M206.1,121.7h2.9
		c0.7,0,1.2,0,1.5,0.1c0.5,0.1,0.9,0.3,1.2,0.6c0.3,0.3,0.6,0.7,0.8,1.1c0.2,0.4,0.3,1,0.3,1.7c0,0.6-0.1,1.1-0.2,1.5
		c-0.2,0.5-0.5,0.9-0.8,1.2c-0.3,0.2-0.6,0.4-1.1,0.6c-0.4,0.1-0.8,0.1-1.4,0.1h-3V121.7z"/>
	<polygon points="215.2,129 215.4,122 221.3,122.2 221.2,123.4 217,123.2 216.9,124.8 220.8,124.9 220.8,126.1 216.9,126 
		216.8,127.9 221.2,128.1 221.1,129.2 	"/>
	<polygon points="287.7,150.2 291,144 296.2,146.7 295.6,147.8 291.9,145.8 291.1,147.2 294.6,149 294.1,150 290.6,148.2 
		289.7,149.9 293.6,151.9 293,153 	"/>
	<polygon points="236.7,131.9 237.7,126.1 242.5,127 242.3,128 238.9,127.3 238.6,128.6 241.8,129.2 241.6,130.2 238.4,129.6 
		238.1,131.1 241.7,131.8 241.5,132.8 	"/>
	<polygon points="223.7,129.8 224.5,122.9 226.6,123.1 227.4,128 229.2,123.4 231.3,123.7 230.5,130.6 229.2,130.5 229.8,125 
		227.8,130.3 226.4,130.2 225.7,124.5 225,130 	"/>
	<path d="M311.7,162c-0.3,0.7-0.3,1.3-0.1,1.8c0.2,0.5,0.6,0.9,1.1,1.1c0.5,0.2,1,0.2,1.5,0c0.5-0.2,0.9-0.7,1.2-1.4
		c0.3-0.7,0.3-1.3,0.1-1.8c-0.2-0.5-0.6-0.8-1.1-1.1c-0.5-0.2-1.1-0.2-1.5,0C312.3,160.9,312,161.3,311.7,162z M310.3,161.5
		c0.3-0.6,0.6-1.1,0.9-1.5c0.3-0.3,0.6-0.5,1-0.6c0.4-0.1,0.7-0.2,1.1-0.2c0.5,0,1,0.1,1.5,0.3c1,0.4,1.6,1,2,1.8
		c0.4,0.8,0.3,1.7-0.1,2.7c-0.4,1-1,1.7-1.8,2c-0.8,0.3-1.7,0.3-2.7-0.1c-1-0.4-1.6-1-2-1.8C309.9,163.4,309.9,162.5,310.3,161.5z"
		/>
	<path d="M302.8,156.2l1.3,0.8c-0.2,0.4-0.2,0.8-0.1,1.1c0.1,0.3,0.4,0.6,0.8,0.9c0.4,0.3,0.8,0.4,1.1,0.4c0.3,0,0.6-0.1,0.7-0.3
		c0.1-0.1,0.1-0.3,0.1-0.4c0-0.2-0.1-0.3-0.3-0.6c-0.1-0.1-0.4-0.5-0.9-1c-0.6-0.6-1-1.2-1.1-1.6c-0.2-0.6-0.1-1.1,0.2-1.5
		c0.2-0.3,0.5-0.5,0.8-0.6c0.4-0.1,0.8-0.1,1.2,0c0.4,0.1,0.9,0.3,1.4,0.7c0.8,0.6,1.3,1.1,1.5,1.7c0.2,0.6,0.1,1.2-0.2,1.7
		l-1.3-0.9c0.1-0.3,0.2-0.6,0.1-0.9c-0.1-0.3-0.3-0.5-0.7-0.8c-0.4-0.3-0.7-0.4-1-0.4c-0.2,0-0.3,0.1-0.4,0.2
		c-0.1,0.1-0.1,0.3,0,0.5c0.1,0.2,0.4,0.6,0.9,1.2c0.5,0.6,0.9,1,1.1,1.4c0.2,0.3,0.3,0.7,0.3,1.1c0,0.4-0.1,0.7-0.4,1.1
		c-0.2,0.3-0.5,0.5-0.9,0.7c-0.4,0.1-0.8,0.1-1.3,0c-0.5-0.1-1-0.4-1.5-0.8c-0.8-0.6-1.3-1.2-1.5-1.8
		C302.4,157.5,302.5,156.8,302.8,156.2z"/>
	<path d="M295.8,151.8l1.3,0.8c-0.2,0.4-0.2,0.8-0.1,1.1c0.1,0.3,0.4,0.6,0.8,0.9c0.4,0.3,0.8,0.4,1.1,0.4c0.3,0,0.6-0.1,0.7-0.3
		c0.1-0.1,0.1-0.3,0.1-0.4c0-0.2-0.1-0.3-0.3-0.6c-0.1-0.1-0.4-0.5-0.9-1c-0.6-0.6-1-1.2-1.1-1.6c-0.2-0.6-0.1-1.1,0.2-1.5
		c0.2-0.3,0.5-0.5,0.8-0.6c0.4-0.1,0.8-0.1,1.2,0c0.4,0.1,0.9,0.3,1.4,0.7c0.8,0.6,1.3,1.1,1.5,1.7c0.2,0.6,0.1,1.2-0.2,1.7
		l-1.3-0.9c0.1-0.3,0.2-0.6,0.1-0.9c-0.1-0.3-0.3-0.5-0.7-0.8c-0.4-0.3-0.7-0.4-1-0.4c-0.2,0-0.3,0.1-0.4,0.2
		c-0.1,0.1-0.1,0.3,0,0.5c0.1,0.2,0.4,0.6,0.9,1.2c0.5,0.6,0.9,1,1.1,1.4c0.2,0.3,0.3,0.7,0.3,1.1c0,0.4-0.1,0.7-0.4,1.1
		c-0.2,0.3-0.5,0.5-0.9,0.7c-0.4,0.1-0.8,0.1-1.3,0c-0.5-0.1-1-0.4-1.5-0.8c-0.8-0.6-1.3-1.2-1.5-1.8
		C295.4,153.1,295.5,152.5,295.8,151.8z"/>
	<path d="M275.3,141.4l0.5-1.1l2.9,1.4l-1.2,2.5c-0.4,0.1-0.9,0.2-1.5,0.1c-0.6-0.1-1.2-0.2-1.8-0.5c-0.7-0.3-1.3-0.7-1.6-1.3
		c-0.4-0.5-0.6-1.1-0.6-1.7c0-0.6,0.1-1.3,0.4-1.9c0.3-0.7,0.7-1.2,1.3-1.5c0.5-0.4,1.1-0.6,1.8-0.6c0.5,0,1.1,0.1,1.8,0.4
		c0.8,0.4,1.4,0.9,1.7,1.4c0.3,0.5,0.4,1.1,0.3,1.8l-1.5-0.4c0-0.4,0-0.7-0.2-1c-0.2-0.3-0.5-0.5-0.9-0.7c-0.6-0.3-1.1-0.3-1.7-0.1
		s-0.9,0.6-1.3,1.3c-0.3,0.7-0.4,1.4-0.2,1.9c0.2,0.5,0.6,0.9,1.1,1.2c0.3,0.1,0.6,0.2,0.9,0.2c0.3,0,0.6,0,0.9,0l0.4-0.8
		L275.3,141.4z"/>
	<path d="M249.8,128.8l-0.7,1.9l0.7,0.3c0.5,0.2,0.9,0.3,1.1,0.3c0.2,0,0.4-0.1,0.5-0.2c0.2-0.1,0.3-0.3,0.3-0.5
		c0.1-0.2,0.1-0.5,0-0.7c-0.1-0.2-0.2-0.4-0.4-0.5c-0.1-0.1-0.5-0.2-0.9-0.4L249.8,128.8z M246.6,133.9l2.3-6.7l2.1,0.7
		c0.8,0.3,1.3,0.5,1.6,0.6c0.3,0.2,0.6,0.6,0.7,1c0.1,0.4,0.1,0.9-0.1,1.4c-0.1,0.4-0.3,0.7-0.6,1c-0.2,0.2-0.5,0.4-0.8,0.5
		c-0.3,0.1-0.5,0.1-0.8,0.1c-0.3,0-0.8-0.2-1.4-0.4l-0.9-0.3l-0.9,2.5L246.6,133.9z"/>
</g>
</svg>
