<?xml version="1.0" encoding="utf-8"?>
<!-- Generator: Adobe Illustrator 17.1.0, SVG Export Plug-In . SVG Version: 6.00 Build 0)  -->
<!DOCTYPE svg PUBLIC "-//W3C//DTD SVG 1.1//EN" "http://www.w3.org/Graphics/SVG/1.1/DTD/svg11.dtd">
<svg version="1.1" id="Layer_1" xmlns="http://www.w3.org/2000/svg" xmlns:xlink="http://www.w3.org/1999/xlink" x="0px" y="0px"
	 viewBox="0 0 500 263" enable-background="new 0 0 500 263" xml:space="preserve">
<g>
	<g>
		<rect x="200.2" y="-0.3" fill="#BF2033" width="299.8" height="20.3"/>
		<rect x="200.2" y="39.5" fill="#BF2033" width="299.8" height="20.3"/>
		<rect x="200.2" y="79.4" fill="#BF2033" width="299.8" height="20.3"/>
		<rect x="200.2" y="118.6" fill="#BF2033" width="299.8" height="20.3"/>
		<rect y="157.9" fill="#BF2033" width="500" height="20.3"/>
		<rect y="199.9" fill="#BF2033" width="500" height="20.3"/>
		<rect y="242.7" fill="#BF2033" width="500" height="20.3"/>
	</g>
	<rect y="-0.3" fill="#212F64" width="200.7" height="138.8"/>
	<g>
		<polygon fill="#FFFFFF" points="9.1,11.4 14.9,11.4 17.1,5.3 19.4,11.4 25.2,11.4 20.8,15.4 22.5,21.5 17.2,18.1 12.2,21.5 
			13.7,15.4 		"/>
		<polygon fill="#FFFFFF" points="42,11.4 47.8,11.4 49.9,5.3 52.3,11.4 58.1,11.4 53.7,15.4 55.3,21.5 50,18.1 45.1,21.5 
			46.5,15.4 		"/>
		<polygon fill="#FFFFFF" points="76,11.4 81.8,11.4 84,5.3 86.3,11.4 92.1,11.4 87.7,15.4 89.4,21.5 84.1,18.1 79.1,21.5 
			80.6,15.4 		"/>
		<polygon fill="#FFFFFF" points="108.9,11.4 114.7,11.4 116.8,5.3 119.2,11.4 125,11.4 120.6,15.4 122.2,21.5 116.9,18.1 112,21.5 
			113.4,15.4 		"/>
		<polygon fill="#FFFFFF" points="142,11.4 147.8,11.4 149.9,5.3 152.3,11.4 158.1,11.4 153.7,15.4 155.3,21.5 150,18.1 145.1,21.5 
			146.5,15.4 		"/>
		<polygon fill="#FFFFFF" points="175.8,11.4 181.6,11.4 183.7,5.3 186.1,11.4 191.9,11.4 187.5,15.4 189.1,21.5 183.8,18.1 
			178.9,21.5 180.3,15.4 		"/>
		<polygon fill="#FFFFFF" points="25.5,26.1 31.4,26.1 33.5,19.9 35.9,26.1 41.7,26.1 37.3,30.1 38.9,36.2 33.6,32.8 28.6,36.2 
			30.1,30.1 		"/>
		<polygon fill="#FFFFFF" points="58.4,26.1 64.2,26.1 66.4,19.9 68.8,26.1 74.5,26.1 70.1,30.1 71.8,36.2 66.5,32.8 61.5,36.2 
			63,30.1 		"/>
		<polygon fill="#FFFFFF" points="92.4,26.1 98.3,26.1 100.4,19.9 102.8,26.1 108.6,26.1 104.2,30.1 105.8,36.2 100.5,32.8 
			95.5,36.2 97,30.1 		"/>
		<polygon fill="#FFFFFF" points="125.3,26.1 131.1,26.1 133.3,19.9 135.6,26.1 141.4,26.1 137,30.1 138.7,36.2 133.4,32.8 
			128.4,36.2 129.9,30.1 		"/>
		<polygon fill="#FFFFFF" points="158.4,26.1 164.2,26.1 166.4,19.9 168.8,26.1 174.5,26.1 170.1,30.1 171.8,36.2 166.5,32.8 
			161.5,36.2 163,30.1 		"/>
		<polygon fill="#FFFFFF" points="9.1,39 14.9,39 17.1,32.8 19.4,39 25.2,39 20.8,43 22.5,49.1 17.2,45.7 12.2,49.1 13.7,43 		"/>
		<polygon fill="#FFFFFF" points="42,39 47.8,39 49.9,32.8 52.3,39 58.1,39 53.7,43 55.3,49.1 50,45.7 45.1,49.1 46.5,43 		"/>
		<polygon fill="#FFFFFF" points="76,39 81.8,39 84,32.8 86.3,39 92.1,39 87.7,43 89.4,49.1 84.1,45.7 79.1,49.1 80.6,43 		"/>
		<polygon fill="#FFFFFF" points="108.9,39 114.7,39 116.8,32.8 119.2,39 125,39 120.6,43 122.2,49.1 116.9,45.7 112,49.1 113.4,43 
					"/>
		<polygon fill="#FFFFFF" points="142,39 147.8,39 149.9,32.8 152.3,39 158.1,39 153.7,43 155.3,49.1 150,45.7 145.1,49.1 146.5,43 
					"/>
		<polygon fill="#FFFFFF" points="175.8,39 181.6,39 183.7,32.8 186.1,39 191.9,39 187.5,43 189.1,49.1 183.8,45.7 178.9,49.1 
			180.3,43 		"/>
		<polygon fill="#FFFFFF" points="25.5,53.6 31.4,53.6 33.5,47.5 35.9,53.6 41.7,53.6 37.3,57.6 38.9,63.7 33.6,60.3 28.6,63.7 
			30.1,57.6 		"/>
		<polygon fill="#FFFFFF" points="58.4,53.6 64.2,53.6 66.4,47.5 68.8,53.6 74.5,53.6 70.1,57.6 71.8,63.7 66.5,60.3 61.5,63.7 
			63,57.6 		"/>
		<polygon fill="#FFFFFF" points="92.4,53.6 98.3,53.6 100.4,47.5 102.8,53.6 108.6,53.6 104.2,57.6 105.8,63.7 100.5,60.3 
			95.5,63.7 97,57.6 		"/>
		<polygon fill="#FFFFFF" points="125.3,53.6 131.1,53.6 133.3,47.5 135.6,53.6 141.4,53.6 137,57.6 138.7,63.7 133.4,60.3 
			128.4,63.7 129.9,57.6 		"/>
		<polygon fill="#FFFFFF" points="158.4,53.6 164.2,53.6 166.4,47.5 168.8,53.6 174.5,53.6 170.1,57.6 171.8,63.7 166.5,60.3 
			161.5,63.7 163,57.6 		"/>
		<polygon fill="#FFFFFF" points="9.1,67 14.9,67 17.1,60.8 19.4,67 25.2,67 20.8,71 22.5,77.1 17.2,73.7 12.2,77.1 13.7,71 		"/>
		<polygon fill="#FFFFFF" points="42,67 47.8,67 49.9,60.8 52.3,67 58.1,67 53.7,71 55.3,77.1 50,73.7 45.1,77.1 46.5,71 		"/>
		<polygon fill="#FFFFFF" points="76,67 81.8,67 84,60.8 86.3,67 92.1,67 87.7,71 89.4,77.1 84.1,73.7 79.1,77.1 80.6,71 		"/>
		<polygon fill="#FFFFFF" points="108.9,67 114.7,67 116.8,60.8 119.2,67 125,67 120.6,71 122.2,77.1 116.9,73.7 112,77.1 113.4,71 
					"/>
		<polygon fill="#FFFFFF" points="142,67 147.8,67 149.9,60.8 152.3,67 158.1,67 153.7,71 155.3,77.1 150,73.7 145.1,77.1 146.5,71 
					"/>
		<polygon fill="#FFFFFF" points="175.8,67 181.6,67 183.7,60.8 186.1,67 191.9,67 187.5,71 189.1,77.1 183.8,73.7 178.9,77.1 
			180.3,71 		"/>
		<polygon fill="#FFFFFF" points="25.5,81.6 31.4,81.6 33.5,75.5 35.9,81.6 41.7,81.6 37.3,85.6 38.9,91.7 33.6,88.3 28.6,91.7 
			30.1,85.6 		"/>
		<polygon fill="#FFFFFF" points="58.4,81.6 64.2,81.6 66.4,75.5 68.8,81.6 74.5,81.6 70.1,85.6 71.8,91.7 66.5,88.3 61.5,91.7 
			63,85.6 		"/>
		<polygon fill="#FFFFFF" points="92.4,81.6 98.3,81.6 100.4,75.5 102.8,81.6 108.6,81.6 104.2,85.6 105.8,91.7 100.5,88.3 
			95.5,91.7 97,85.6 		"/>
		<polygon fill="#FFFFFF" points="125.3,81.6 131.1,81.6 133.3,75.5 135.6,81.6 141.4,81.6 137,85.6 138.7,91.7 133.4,88.3 
			128.4,91.7 129.9,85.6 		"/>
		<polygon fill="#FFFFFF" points="158.4,81.6 164.2,81.6 166.4,75.5 168.8,81.6 174.5,81.6 170.1,85.6 171.8,91.7 166.5,88.3 
			161.5,91.7 163,85.6 		"/>
		<polygon fill="#FFFFFF" points="9.1,94.6 14.9,94.6 17.1,88.4 19.4,94.6 25.2,94.6 20.8,98.6 22.5,104.7 17.2,101.3 12.2,104.7 
			13.7,98.6 		"/>
		<polygon fill="#FFFFFF" points="42,94.6 47.8,94.6 49.9,88.4 52.3,94.6 58.1,94.6 53.7,98.6 55.3,104.7 50,101.3 45.1,104.7 
			46.5,98.6 		"/>
		<polygon fill="#FFFFFF" points="76,94.6 81.8,94.6 84,88.4 86.3,94.6 92.1,94.6 87.7,98.6 89.4,104.7 84.1,101.3 79.1,104.7 
			80.6,98.6 		"/>
		<polygon fill="#FFFFFF" points="108.9,94.6 114.7,94.6 116.8,88.4 119.2,94.6 125,94.6 120.6,98.6 122.2,104.7 116.9,101.3 
			112,104.7 113.4,98.6 		"/>
		<polygon fill="#FFFFFF" points="142,94.6 147.8,94.6 149.9,88.4 152.3,94.6 158.1,94.6 153.7,98.6 155.3,104.7 150,101.3 
			145.1,104.7 146.5,98.6 		"/>
		<polygon fill="#FFFFFF" points="175.8,94.6 181.6,94.6 183.7,88.4 186.1,94.6 191.9,94.6 187.5,98.6 189.1,104.7 183.8,101.3 
			178.9,104.7 180.3,98.6 		"/>
		<polygon fill="#FFFFFF" points="9.1,121.9 14.9,121.9 17.1,115.8 19.4,121.9 25.2,121.9 20.8,125.9 22.5,132 17.2,128.6 12.2,132 
			13.7,125.9 		"/>
		<polygon fill="#FFFFFF" points="42,121.9 47.8,121.9 49.9,115.8 52.3,121.9 58.1,121.9 53.7,125.9 55.3,132 50,128.6 45.1,132 
			46.5,125.9 		"/>
		<polygon fill="#FFFFFF" points="76,121.9 81.8,121.9 84,115.8 86.3,121.9 92.1,121.9 87.7,125.9 89.4,132 84.1,128.6 79.1,132 
			80.6,125.9 		"/>
		<polygon fill="#FFFFFF" points="108.9,121.9 114.7,121.9 116.8,115.8 119.2,121.9 125,121.9 120.6,125.9 122.2,132 116.9,128.6 
			112,132 113.4,125.9 		"/>
		<polygon fill="#FFFFFF" points="142,121.9 147.8,121.9 149.9,115.8 152.3,121.9 158.1,121.9 153.7,125.9 155.3,132 150,128.6 
			145.1,132 146.5,125.9 		"/>
		<polygon fill="#FFFFFF" points="175.8,121.9 181.6,121.9 183.7,115.8 186.1,121.9 191.9,121.9 187.5,125.9 189.1,132 183.8,128.6 
			178.9,132 180.3,125.9 		"/>
		<polygon fill="#FFFFFF" points="25.5,109.2 31.4,109.2 33.5,103.1 35.9,109.2 41.7,109.2 37.3,113.2 38.9,119.3 33.6,115.9 
			28.6,119.3 30.1,113.2 		"/>
		<polygon fill="#FFFFFF" points="58.4,109.2 64.2,109.2 66.4,103.1 68.8,109.2 74.5,109.2 70.1,113.2 71.8,119.3 66.5,115.9 
			61.5,119.3 63,113.2 		"/>
		<polygon fill="#FFFFFF" points="92.4,109.2 98.3,109.2 100.4,103.1 102.8,109.2 108.6,109.2 104.2,113.2 105.8,119.3 100.5,115.9 
			95.5,119.3 97,113.2 		"/>
		<polygon fill="#FFFFFF" points="125.3,109.2 131.1,109.2 133.3,103.1 135.6,109.2 141.4,109.2 137,113.2 138.7,119.3 133.4,115.9 
			128.4,119.3 129.9,113.2 		"/>
		<polygon fill="#FFFFFF" points="158.4,109.2 164.2,109.2 166.4,103.1 168.8,109.2 174.5,109.2 170.1,113.2 171.8,119.3 
			166.5,115.9 161.5,119.3 163,113.2 		"/>
	</g>
</g>
</svg>
