<?xml version="1.0" encoding="utf-8"?>
<!-- Generator: Adobe Illustrator 17.1.0, SVG Export Plug-In . SVG Version: 6.00 Build 0)  -->
<!DOCTYPE svg PUBLIC "-//W3C//DTD SVG 1.1//EN" "http://www.w3.org/Graphics/SVG/1.1/DTD/svg11.dtd">
<svg version="1.1" id="Layer_1" xmlns="http://www.w3.org/2000/svg" xmlns:xlink="http://www.w3.org/1999/xlink" x="0px" y="0px"
	 viewBox="0 0 50 50" enable-background="new 0 0 50 50" xml:space="preserve">
<g>
	<g>
		<g>
			<g>
				<path fill="#81818C" d="M14.7,42.6c-0.6,0-1.1-0.3-1.5-0.7c-0.4-0.5-0.6-1.1-0.5-1.8l0.3-2.4c0.1-0.4,0.2-0.7,0.4-1.2
					c0-0.1,0.1-0.1,0.1-0.2c1.7-2.6,10.3-13.6,11.8-15.3l0.7-2.4c0-0.1,0.1-0.2,0.1-0.3l3.4-4.3c6.3-7.7,8.6-9,9.7-9.3
					C39.9,4.7,40.9,5,42,5.7c1.1,0.7,1.7,1.6,1.9,2.4c0.3,1.3,0,4-6.5,12.2l-3.6,4.5c-0.1,0.1-0.1,0.1-0.3,0.2L31.6,26
					C30,28.1,21.6,38.2,19,41c-0.1,0.1-0.2,0.1-0.3,0.2c-0.3,0.3-0.6,0.5-0.9,0.5l-2.2,0.8C15.2,42.5,15,42.6,14.7,42.6z M14.7,37
					c0,0.1-0.1,0.1-0.1,0.1c-0.2,0.3-0.3,0.6-0.3,0.8L14,40.3c-0.1,0.3,0,0.6,0.2,0.7c0.2,0.2,0.5,0.3,0.9,0.1l2.2-0.8
					c0.2-0.1,0.5-0.2,0.7-0.5c0.1-0.1,0.1-0.1,0.2-0.1c2.8-3,11.1-13.2,12.5-14.8c0.1-0.1,0.1-0.1,0.3-0.2l1.9-0.9l3.6-4.4
					c6-7.5,6.5-10.1,6.3-11.1c-0.1-0.5-0.6-1.1-1.4-1.6s-1.3-0.7-1.6-0.7c-0.1,0-0.1,0-0.2,0c-1.1,0.3-3.5,2-9,8.8L27.3,19l-0.7,2.4
					c0,0.1-0.1,0.1-0.1,0.3C24.7,23.8,16.5,34.2,14.7,37z"/>
			</g>
			<g>
				<path fill="#81818C" d="M39.1,14.2l-2.7,3.4c0.1,0.8-0.3,1.3-1.1,1.5c-0.9,0.2-1.5-0.1-1.7-1c-0.2-0.9,0.1-1.4,1.1-1.7
					c0.1-0.1,0.4-0.1,0.7-0.1l2-2.4c1.6-1.9,2.4-3.8,2.6-5.5l1.7,1.4C41.3,11,40.5,12.5,39.1,14.2z"/>
			</g>
			<g>
				<path fill="#81818C" d="M16.9,39.7l-1.8,0.7c-0.1,0-0.1,0-0.1,0h-0.1c0,0-0.1-0.1,0-0.3l0.2-1.9c0-0.1,0.1-0.3,0.1-0.4
					c0.3,0.1,0.7,0.2,1.1,0.6c0.1,0.1,0.2,0.2,0.3,0.3c0.1,0.1,0.1,0.1,0.2,0.2c0.3,0.3,0.4,0.5,0.5,0.6
					C17.2,39.6,17.1,39.7,16.9,39.7z"/>
			</g>
		</g>
		<g>
			<circle fill="#81818C" cx="9.9" cy="13.5" r="1.1"/>
		</g>
		<g>
			<circle fill="#81818C" cx="13.2" cy="13.5" r="1.1"/>
		</g>
		<g>
			<circle fill="#81818C" cx="16.5" cy="13.5" r="1.1"/>
		</g>
		<g>
			<path fill="#81818C" d="M40.6,46.2H8.5c-1.6,0-2.8-1.3-2.8-2.8V12.3c0-1.6,1.3-2.8,2.8-2.8h19.7c0.4,0,0.7,0.3,0.7,0.7
				s-0.3,0.7-0.7,0.7H8.5c-0.8,0-1.4,0.7-1.4,1.5v31.1c0,0.9,0.7,1.5,1.5,1.5h32.1c0.9,0,1.5-0.7,1.5-1.5V20c0-0.4,0.3-0.7,0.7-0.7
				s0.7,0.3,0.7,0.7v23.3C43.4,44.9,42.2,46.2,40.6,46.2z"/>
		</g>
		<g>
			<path fill="#81818C" d="M23.7,17.4H6.3c-0.4,0-0.7-0.3-0.7-0.7s0.3-0.7,0.7-0.7h17.3c0.4,0,0.7,0.3,0.7,0.7S24,17.4,23.7,17.4z"
				/>
		</g>
	</g>
</g>
</svg>
