<?xml version="1.0" encoding="utf-8"?>
<!-- Generator: Adobe Illustrator 17.1.0, SVG Export Plug-In . SVG Version: 6.00 Build 0)  -->
<!DOCTYPE svg PUBLIC "-//W3C//DTD SVG 1.1//EN" "http://www.w3.org/Graphics/SVG/1.1/DTD/svg11.dtd">
<svg version="1.1" id="Layer_1" xmlns="http://www.w3.org/2000/svg" xmlns:xlink="http://www.w3.org/1999/xlink" x="0px" y="0px"
	 viewBox="0 0 50 50" enable-background="new 0 0 50 50" xml:space="preserve">
<g>
	<g>
		<g>
			<path fill="#C2C2CC" d="M40.7,40.5H9c-1.5,0-2.8-1.3-2.8-2.8V12.8C6.2,11.3,7.5,10,9,10h7.8c0.9,0,1.6,0.5,1.9,1.3l0.7,1.8H23
				c0.4,0,0.7,0.3,0.7,0.7s-0.3,0.7-0.7,0.7h-4c-0.3,0-0.5-0.1-0.6-0.4l-0.9-2.2c-0.1-0.3-0.4-0.5-0.7-0.5H9c-0.8,0-1.4,0.7-1.4,1.4
				v24.9c0,0.8,0.7,1.4,1.4,1.4h31.7c0.8,0,1.4-0.7,1.4-1.4V27.6c0-0.4,0.3-0.7,0.7-0.7s0.7,0.3,0.7,0.7v10.1
				C43.6,39.2,42.3,40.5,40.7,40.5z"/>
		</g>
		<g>
			<g>
				<path fill="#81818C" d="M34.7,28c-5.7,0-10.3-4.6-10.3-10.3S29,7.5,34.7,7.5S45,12.1,45,17.8S40.3,28,34.7,28z M34.7,8.9
					c-4.9,0-9,4-9,9s4,8.9,9,8.9s9-4,9-9S39.6,8.9,34.7,8.9z"/>
			</g>
			<g>
				<path fill="#81818C" d="M34.7,18.8c-0.1,0-0.2,0-0.3-0.1c-0.2-0.1-0.4-0.3-0.4-0.6v-7.2c0-0.4,0.3-0.7,0.7-0.7s0.7,0.3,0.7,0.7
					v5.9l2.9-2.3c0.3-0.2,0.7-0.2,0.9,0.1s0.2,0.7-0.1,0.9l-3.9,3.1C34.9,18.8,34.8,18.8,34.7,18.8z"/>
			</g>
		</g>
	</g>
</g>
</svg>
