<!-- Generator: Adobe Illustrator 18.1.0, SVG Export Plug-In  -->
<svg version="1.1"
	 xmlns="http://www.w3.org/2000/svg" xmlns:xlink="http://www.w3.org/1999/xlink" xmlns:a="http://ns.adobe.com/AdobeSVGViewerExtensions/3.0/"
	 x="0px" y="0px" width="40px" height="40px" viewBox="0 0 40 40" enable-background="new 0 0 40 40" xml:space="preserve">
<defs>
</defs>
<path fill="#231F20" d="M15.924,34.49c-1.139-0.302-2.23-0.755-3.275-1.361l-0.175-0.105L7.839,35.85
	c-1.393-1.069-2.613-2.29-3.658-3.662l2.787-4.673l-0.104-0.175c-0.557-1.023-0.998-2.104-1.324-3.243l-0.069-0.209L0.21,22.563
	C0.07,21.61,0,20.75,0,19.983c0-0.581,0.07-1.43,0.21-2.546l5.261-1.325l0.069-0.209c0.302-1.069,0.743-2.15,1.324-3.243
	l0.104-0.174L4.182,7.812C5.25,6.464,6.469,5.243,7.839,4.15l4.634,2.824l0.175-0.105c1.022-0.581,2.114-1.034,3.275-1.36
	l0.175-0.035l1.322-5.301C18.513,0.058,19.373,0,20,0c0.789,0,1.649,0.058,2.579,0.175l1.322,5.301l0.21,0.035
	c1.115,0.326,2.195,0.779,3.24,1.36l0.175,0.105l4.668-2.824c1.394,1.093,2.602,2.314,3.624,3.662l-2.787,4.673l0.104,0.174
	c0.533,0.976,0.987,2.058,1.359,3.243l0.034,0.209l5.297,1.325C39.941,18.483,40,19.332,40,19.983c0,0.791-0.059,1.651-0.175,2.58
	l-5.297,1.325l-0.034,0.209c-0.349,1.14-0.802,2.22-1.359,3.243l-0.104,0.175l2.787,4.673c-1.115,1.418-2.324,2.639-3.624,3.662
	l-4.668-2.825l-0.175,0.105c-1.092,0.605-2.173,1.059-3.24,1.361l-0.21,0.069l-1.322,5.266C21.486,39.942,20.627,40,20,40
	c-0.789,0-1.649-0.058-2.579-0.174l-1.322-5.266L15.924,34.49z M12.509,19.983c0,2.07,0.731,3.836,2.195,5.3
	c1.464,1.465,3.229,2.197,5.297,2.197c2.066,0,3.832-0.732,5.297-2.197c1.463-1.464,2.195-3.231,2.195-5.3
	c0-2.046-0.732-3.801-2.195-5.266c-1.464-1.464-3.23-2.197-5.297-2.197c-2.068,0-3.832,0.733-5.297,2.197
	C13.24,16.182,12.509,17.937,12.509,19.983z"/>
</svg>