<?xml version="1.0" encoding="utf-8"?>
<!-- Generator: Adobe Illustrator 17.1.0, SVG Export Plug-In . SVG Version: 6.00 Build 0)  -->
<!DOCTYPE svg PUBLIC "-//W3C//DTD SVG 1.1//EN" "http://www.w3.org/Graphics/SVG/1.1/DTD/svg11.dtd">
<svg version="1.1" id="Layer_1" xmlns="http://www.w3.org/2000/svg" xmlns:xlink="http://www.w3.org/1999/xlink" x="0px" y="0px"
	 viewBox="0 0 840 216" enable-background="new 0 0 840 216" xml:space="preserve">
<g>
	<g>
		<path fill="#58595B" d="M119,165.7c-31.3,0-56.8-25.5-56.8-56.8c0-31.3,25.5-56.8,56.8-56.8c31.3,0,56.8,25.5,56.8,56.8
			C175.7,140.2,150.2,165.7,119,165.7z M119,53.2c-30.7,0-55.8,25-55.8,55.8s25,55.8,55.8,55.8s55.8-25,55.8-55.8
			S149.7,53.2,119,53.2z"/>
	</g>
</g>
<g>
	<g>
		<path fill="#A17918" d="M119,165.7c-31.3,0-56.8-25.5-56.8-56.8c0-31.3,25.5-56.8,56.8-56.8c31.3,0,56.8,25.5,56.8,56.8
			C175.7,140.2,150.2,165.7,119,165.7z M119,53.2c-30.7,0-55.8,25-55.8,55.8s25,55.8,55.8,55.8s55.8-25,55.8-55.8
			S149.7,53.2,119,53.2z"/>
	</g>
	<g>
		<path fill="#A17918" d="M129,33.6c-22.8,0-42.7,12.7-52.9,31.5c-0.2,0.4-0.4,0.8-0.6,1.2c-2.4,4.6-4.1,9.5-5.3,14.6
			c2.4-4.1,5.3-7.9,8.6-11.3c0.3-0.3,0.6-0.6,0.9-0.9c10.1-9.9,24-16,39.3-16c15.3,0,29.2,6.1,39.3,16l15.3-15.3
			C162.5,41.2,146.6,33.6,129,33.6z"/>
	</g>
	<g>
		<path fill="#A17918" d="M108.9,184.2c22.8,0,42.7-12.7,52.9-31.5c0.2-0.4,0.4-0.8,0.6-1.2c2.4-4.6,4.1-9.5,5.3-14.6
			c-2.4,4.1-5.3,7.9-8.6,11.3c-0.3,0.3-0.6,0.6-0.9,0.9c-10.1,9.9-24,16-39.3,16c-15.3,0-29.2-6.1-39.3-16l-15.3,15.3
			C75.4,176.6,91.3,184.2,108.9,184.2z"/>
	</g>
	<path fill="#A17918" d="M174.5,163.5l-15.3-15.3c9.9-10.1,16-24,16-39.3c0-15.3-6.1-29.2-16-39.3c-0.3-0.3-0.6-0.6-0.9-0.9
		c-3.4-3.3-7.2-6.2-11.3-8.6c5.1,1.1,10,2.9,14.6,5.3c0.4,0.2,0.8,0.4,1.2,0.6c18.8,10.2,31.5,30.1,31.5,52.9
		C194.3,136.6,186.6,152.5,174.5,163.5z M43.6,98.9c0,22.8,12.7,42.7,31.5,52.9c0.4,0.2,0.8,0.4,1.2,0.6c4.6,2.4,9.5,4.1,14.6,5.3
		c-4.1-2.4-7.9-5.3-11.3-8.6c-0.3-0.3-0.6-0.6-0.9-0.9c-9.9-10.1-16-24-16-39.3c0-15.3,6.1-29.2,16-39.3L63.4,54.3
		C51.3,65.3,43.6,81.2,43.6,98.9z"/>
</g>
<g>
	<g>
		<path fill="#DBA227" d="M118,164.7c-31.3,0-56.8-25.5-56.8-56.8c0-31.3,25.5-56.8,56.8-56.8c31.3,0,56.8,25.5,56.8,56.8
			C174.7,139.2,149.2,164.7,118,164.7z M118,52.2c-30.7,0-55.8,25-55.8,55.8s25,55.8,55.8,55.8s55.8-25,55.8-55.8
			S148.7,52.2,118,52.2z"/>
	</g>
	<g>
		<path fill="#DBA227" d="M128,32.6c-22.8,0-42.7,12.7-52.9,31.5c-0.2,0.4-0.4,0.8-0.6,1.2c-2.4,4.6-4.1,9.5-5.3,14.6
			c2.4-4.1,5.3-7.9,8.6-11.3c0.3-0.3,0.6-0.6,0.9-0.9c10.1-9.9,24-16,39.3-16c15.3,0,29.2,6.1,39.3,16l15.3-15.3
			C161.5,40.2,145.6,32.6,128,32.6z"/>
	</g>
	<g>
		<path fill="#DBA227" d="M107.9,183.2c22.8,0,42.7-12.7,52.9-31.5c0.2-0.4,0.4-0.8,0.6-1.2c2.4-4.6,4.1-9.5,5.3-14.6
			c-2.4,4.1-5.3,7.9-8.6,11.3c-0.3,0.3-0.6,0.6-0.9,0.9c-10.1,9.9-24,16-39.3,16c-15.3,0-29.2-6.1-39.3-16l-15.3,15.3
			C74.4,175.6,90.3,183.2,107.9,183.2z"/>
	</g>
	<linearGradient id="SVGID_1_" gradientUnits="userSpaceOnUse" x1="117.9513" y1="162.5237" x2="117.9513" y2="53.3281">
		<stop  offset="0.1408" style="stop-color:#FFC943"/>
		<stop  offset="0.4178" style="stop-color:#FFD943"/>
		<stop  offset="0.4272" style="stop-color:#FFC943"/>
		<stop  offset="1" style="stop-color:#FFC943"/>
	</linearGradient>
	<path fill="url(#SVGID_1_)" d="M173.5,162.5l-15.3-15.3c9.9-10.1,16-24,16-39.3c0-15.3-6.1-29.2-16-39.3c-0.3-0.3-0.6-0.6-0.9-0.9
		c-3.4-3.3-7.2-6.2-11.3-8.6c5.1,1.1,10,2.9,14.6,5.3c0.4,0.2,0.8,0.4,1.2,0.6c18.8,10.2,31.5,30.1,31.5,52.9
		C193.3,135.6,185.6,151.5,173.5,162.5z M42.6,97.9c0,22.8,12.7,42.7,31.5,52.9c0.4,0.2,0.8,0.4,1.2,0.6c4.6,2.4,9.5,4.1,14.6,5.3
		c-4.1-2.4-7.9-5.3-11.3-8.6c-0.3-0.3-0.6-0.6-0.9-0.9c-9.9-10.1-16-24-16-39.3c0-15.3,6.1-29.2,16-39.3L62.4,53.3
		C50.3,64.3,42.6,80.2,42.6,97.9z"/>
</g>
<path fill="#A17918" d="M794.4,55.6v10.2h-37.6h-10.2H709V55.6h37.6h10.2H794.4z M729.4,68.7v75.7h10.2V68.7H729.4z M746.6,147.4
	H709v10.2h37.6h10.2h37.6v-10.2h-37.6H746.6z M763.7,68.7v75.7H774V68.7H763.7z"/>
<linearGradient id="SVGID_2_" gradientUnits="userSpaceOnUse" x1="750.6951" y1="156.6238" x2="750.6951" y2="54.625">
	<stop  offset="5.164319e-02" style="stop-color:#DBA227"/>
	<stop  offset="0.3192" style="stop-color:#FFC943"/>
	<stop  offset="0.6291" style="stop-color:#FFD943"/>
	<stop  offset="0.6291" style="stop-color:#FFC943"/>
	<stop  offset="0.9484" style="stop-color:#DBA227"/>
</linearGradient>
<path fill="url(#SVGID_2_)" d="M793.4,54.6v10.2h-37.6h-10.2H708V54.6h37.6h10.2H793.4z M728.4,67.7v75.7h10.2V67.7H728.4z
	 M745.6,146.4H708v10.2h37.6h10.2h37.6v-10.2h-37.6H745.6z M762.7,67.7v75.7H773V67.7H762.7z"/>
<path d="M275.7,157.6c15.6,0,28.2-12.7,28.2-28.2v-0.4c0-15.6-12.7-28.2-28.2-28.2l-25.5,0c-9,0-16.2-7.3-16.2-16.2V84
	c0-9,7.3-16.2,16.2-16.2l48.6,0l0-12l-48.6,0c-15.6,0-28.2,12.7-28.2,28.2v0.4c0,15.6,12.7,28.2,28.2,28.2l25.5,0
	c9,0,16.2,7.3,16.2,16.2v0.4c0,9-7.3,16.2-16.2,16.2h-43.8l-3.3,0l-7.7,12h52.9L275.7,157.6z M661.6,157.6
	c15.6,0,28.2-12.7,28.2-28.2v-0.4c0-15.6-12.7-28.2-28.2-28.2l-26.5,0c-9,0-16.2-7.3-16.2-16.2V84c0-9,7.3-16.2,16.2-16.2l49.6,0
	l0-12l-49.6,0c-15.6,0-28.2,12.7-28.2,28.2v0.4c0,15.6,12.7,28.2,28.2,28.2l26.5,0c9,0,16.2,7.3,16.2,16.2v0.4
	c0,9-7.3,16.2-16.2,16.2h-43.8l-3.3,0l-7.7,12h51.9L661.6,157.6z M356.3,157.6c25.2-0.1,40.3-18.9,40.3-50.5v-7.5l-0.4,0.1
	c-1.8-25.5-14.6-41.4-35.1-43.6v-0.3h-6c-0.6,0-1.2,0-1.8,0h-3.8v0.3c-21.7,2.6-34.5,20.4-34.9,48.9l0,2.2
	c0,31.6,15.1,50.5,40.5,50.5h0.6L356.3,157.6z M326.7,106.2c0-14.1,3.5-37.5,26.9-38.4h2.4c24.8,0,28.5,24.1,28.5,38.5v6.2
	c-1,14.3-6.4,33.1-28.3,33.1l-1.1,0c-24.1,0-28.2-22.8-28.5-37.2L326.7,106.2z M424.4,68.6c1.9,0.9,3.5,2.7,5.7,5.9
	c6,8.6,12.1,22.1,18,35.2c6.3,14,12.3,27.3,18.6,36.2c4,5.7,9.2,11.7,19.7,11.7h0.3c4.3,0,7.7-3.5,7.7-7.7l-0.2-94.1l-12,0l0.2,89
	c-1.9-0.9-3.6-2.6-5.9-5.9c-5.7-8-11.7-21.3-17.5-34.2c-6.1-13.6-12.4-27.6-19.1-37.1c-4-5.7-9.1-11.8-19.8-11.8h-0.1
	c-4.3,0-7.7,3.5-7.7,7.7l0,94.2l12,0L424.4,68.6z M580.1,55.8v30v21.4c0,13.5-3.3,35.5-24.1,38.2c-1.4,0.2-2.9,0.3-4.4,0.3h-2.1
	c-23.8-0.7-27.5-24.3-27.5-38.4V55.8h-12v51.4c0,29.3,13,47.6,35.1,50.2v0.3h4c0.4,0,0.9,0,1.3,0h6.4v-0.3
	c22.1-2.5,35.1-20.9,35.1-50.2V85.8v-30H580.1z M275.7,157.6c15.6,0,28.2-12.7,28.2-28.2v-0.4c0-15.6-12.7-28.2-28.2-28.2l-25.5,0
	c-9,0-16.2-7.3-16.2-16.2V84c0-9,7.3-16.2,16.2-16.2l48.6,0l0-12l-48.6,0c-15.6,0-28.2,12.7-28.2,28.2v0.4
	c0,15.6,12.7,28.2,28.2,28.2l25.5,0c9,0,16.2,7.3,16.2,16.2v0.4c0,9-7.3,16.2-16.2,16.2h-43.8l-3.3,0l-7.7,12h52.9L275.7,157.6z
	 M661.6,157.6c15.6,0,28.2-12.7,28.2-28.2v-0.4c0-15.6-12.7-28.2-28.2-28.2l-26.5,0c-9,0-16.2-7.3-16.2-16.2V84
	c0-9,7.3-16.2,16.2-16.2l49.6,0l0-12l-49.6,0c-15.6,0-28.2,12.7-28.2,28.2v0.4c0,15.6,12.7,28.2,28.2,28.2l26.5,0
	c9,0,16.2,7.3,16.2,16.2v0.4c0,9-7.3,16.2-16.2,16.2h-43.8l-3.3,0l-7.7,12h51.9L661.6,157.6z M356.3,157.6
	c25.2-0.1,40.3-18.9,40.3-50.5v-7.5l-0.4,0.1c-1.8-25.5-14.6-41.4-35.1-43.6v-0.3h-6c-0.6,0-1.2,0-1.8,0h-3.8v0.3
	c-21.7,2.6-34.5,20.4-34.9,48.9l0,2.2c0,31.6,15.1,50.5,40.5,50.5h0.6L356.3,157.6z M326.7,106.2c0-14.1,3.5-37.5,26.9-38.4h2.4
	c24.8,0,28.5,24.1,28.5,38.5v6.2c-1,14.3-6.4,33.1-28.3,33.1l-1.1,0c-24.1,0-28.2-22.8-28.5-37.2L326.7,106.2z M424.4,68.6
	c1.9,0.9,3.5,2.7,5.7,5.9c6,8.6,12.1,22.1,18,35.2c6.3,14,12.3,27.3,18.6,36.2c4,5.7,9.2,11.7,19.7,11.7h0.3c4.3,0,7.7-3.5,7.7-7.7
	l-0.2-94.1l-12,0l0.2,89c-1.9-0.9-3.6-2.6-5.9-5.9c-5.7-8-11.7-21.3-17.5-34.2c-6.1-13.6-12.4-27.6-19.1-37.1
	c-4-5.7-9.1-11.8-19.8-11.8h-0.1c-4.3,0-7.7,3.5-7.7,7.7l0,94.2l12,0L424.4,68.6z"/>
<linearGradient id="SVGID_3_" gradientUnits="userSpaceOnUse" x1="455.7321" y1="167.3695" x2="449.2788" y2="44.2332">
	<stop  offset="0" style="stop-color:#48484A"/>
	<stop  offset="0.4586" style="stop-color:#808285"/>
	<stop  offset="0.4633" style="stop-color:#58595B"/>
	<stop  offset="1" style="stop-color:#3E3D3F"/>
</linearGradient>
<path fill="url(#SVGID_3_)" d="M274.7,156.6c15.6,0,28.2-12.7,28.2-28.2v-0.4c0-15.6-12.7-28.2-28.2-28.2l-25.5,0
	c-9,0-16.2-7.3-16.2-16.2V83c0-9,7.3-16.2,16.2-16.2l48.6,0l0-12l-48.6,0c-15.6,0-28.2,12.7-28.2,28.2v0.4
	c0,15.6,12.7,28.2,28.2,28.2l25.5,0c9,0,16.2,7.3,16.2,16.2v0.4c0,9-7.3,16.2-16.2,16.2h-43.8l-3.3,0l-7.7,12h52.9L274.7,156.6z
	 M660.6,156.6c15.6,0,28.2-12.7,28.2-28.2v-0.4c0-15.6-12.7-28.2-28.2-28.2l-26.5,0c-9,0-16.2-7.3-16.2-16.2V83
	c0-9,7.3-16.2,16.2-16.2l49.6,0l0-12l-49.6,0c-15.6,0-28.2,12.7-28.2,28.2v0.4c0,15.6,12.7,28.2,28.2,28.2l26.5,0
	c9,0,16.2,7.3,16.2,16.2v0.4c0,9-7.3,16.2-16.2,16.2h-43.8l-3.3,0l-7.7,12h51.9L660.6,156.6z M355.3,156.6
	c25.2-0.1,40.3-18.9,40.3-50.5v-7.5l-0.4,0.1c-1.8-25.5-14.6-41.4-35.1-43.6v-0.3h-6c-0.6,0-1.2,0-1.8,0h-3.8v0.3
	c-21.7,2.6-34.5,20.4-34.9,48.9l0,2.2c0,31.6,15.1,50.5,40.5,50.5h0.6L355.3,156.6z M325.7,105.2c0-14.1,3.5-37.5,26.9-38.4h2.4
	c24.8,0,28.5,24.1,28.5,38.5v6.2c-1,14.3-6.4,33.1-28.3,33.1l-1.1,0c-24.1,0-28.2-22.8-28.5-37.2L325.7,105.2z M423.4,67.6
	c1.9,0.9,3.5,2.7,5.7,5.9c6,8.6,12.1,22.1,18,35.2c6.3,14,12.3,27.3,18.6,36.2c4,5.7,9.2,11.7,19.7,11.7h0.3c4.3,0,7.7-3.5,7.7-7.7
	l-0.2-94.1l-12,0l0.2,89c-1.9-0.9-3.6-2.6-5.9-5.9c-5.7-8-11.7-21.3-17.5-34.2c-6.1-13.6-12.4-27.6-19.1-37.1
	c-4-5.7-9.1-11.8-19.8-11.8h-0.1c-4.3,0-7.7,3.5-7.7,7.7l0,94.2l12,0L423.4,67.6z M579.1,54.8v30v21.4c0,13.5-3.3,35.5-24.1,38.2
	c-1.4,0.2-2.9,0.3-4.4,0.3h-2.1c-23.8-0.7-27.5-24.3-27.5-38.4V54.8h-12v51.4c0,29.3,13,47.6,35.1,50.2v0.3h4c0.4,0,0.9,0,1.3,0h6.4
	v-0.3c22.1-2.5,35.1-20.9,35.1-50.2V84.8v-30H579.1z M274.7,156.6c15.6,0,28.2-12.7,28.2-28.2v-0.4c0-15.6-12.7-28.2-28.2-28.2
	l-25.5,0c-9,0-16.2-7.3-16.2-16.2V83c0-9,7.3-16.2,16.2-16.2l48.6,0l0-12l-48.6,0c-15.6,0-28.2,12.7-28.2,28.2v0.4
	c0,15.6,12.7,28.2,28.2,28.2l25.5,0c9,0,16.2,7.3,16.2,16.2v0.4c0,9-7.3,16.2-16.2,16.2h-43.8l-3.3,0l-7.7,12h52.9L274.7,156.6z
	 M660.6,156.6c15.6,0,28.2-12.7,28.2-28.2v-0.4c0-15.6-12.7-28.2-28.2-28.2l-26.5,0c-9,0-16.2-7.3-16.2-16.2V83
	c0-9,7.3-16.2,16.2-16.2l49.6,0l0-12l-49.6,0c-15.6,0-28.2,12.7-28.2,28.2v0.4c0,15.6,12.7,28.2,28.2,28.2l26.5,0
	c9,0,16.2,7.3,16.2,16.2v0.4c0,9-7.3,16.2-16.2,16.2h-43.8l-3.3,0l-7.7,12h51.9L660.6,156.6z M355.3,156.6
	c25.2-0.1,40.3-18.9,40.3-50.5v-7.5l-0.4,0.1c-1.8-25.5-14.6-41.4-35.1-43.6v-0.3h-6c-0.6,0-1.2,0-1.8,0h-3.8v0.3
	c-21.7,2.6-34.5,20.4-34.9,48.9l0,2.2c0,31.6,15.1,50.5,40.5,50.5h0.6L355.3,156.6z M325.7,105.2c0-14.1,3.5-37.5,26.9-38.4h2.4
	c24.8,0,28.5,24.1,28.5,38.5v6.2c-1,14.3-6.4,33.1-28.3,33.1l-1.1,0c-24.1,0-28.2-22.8-28.5-37.2L325.7,105.2z M423.4,67.6
	c1.9,0.9,3.5,2.7,5.7,5.9c6,8.6,12.1,22.1,18,35.2c6.3,14,12.3,27.3,18.6,36.2c4,5.7,9.2,11.7,19.7,11.7h0.3c4.3,0,7.7-3.5,7.7-7.7
	l-0.2-94.1l-12,0l0.2,89c-1.9-0.9-3.6-2.6-5.9-5.9c-5.7-8-11.7-21.3-17.5-34.2c-6.1-13.6-12.4-27.6-19.1-37.1
	c-4-5.7-9.1-11.8-19.8-11.8h-0.1c-4.3,0-7.7,3.5-7.7,7.7l0,94.2l12,0L423.4,67.6z"/>
</svg>
